<svg width="30" height="32" viewBox="0 0 30 32" fill="none" xmlns="http://www.w3.org/2000/svg">
<g clip-path="url(#clip0_3_3185)">
<g clip-path="url(#clip1_3_3185)">
<path d="M9.02051 8.67859V12.0329H10.1694V9.81831C9.76889 9.46168 9.39094 9.07761 9.02051 8.67859Z" fill="#1F5FFF"/>
<path d="M19.7632 9.60383V12.0329H20.9796V8.4292C20.5791 8.82573 20.1737 9.21977 19.7632 9.60383Z" fill="#1F5FFF"/>
<path d="M19.763 21.5248V25.9016H19.758C19.6679 28.4404 17.568 30.4804 15 30.4804C12.4295 30.4804 10.3295 28.4429 10.2419 25.9016H10.2369V21.5248H9.02051V25.732C9.02051 29.0165 11.7036 31.69 15 31.69C18.2963 31.69 20.9795 29.0165 20.9795 25.732V21.5248H19.763Z" fill="#1F5FFF"/>
<path d="M10.2369 21.5248H6.92558V21.4924H5.97947C3.35391 21.4924 1.21642 19.3626 1.21642 16.7465C1.21642 14.1303 3.35391 12.0005 5.97947 12.0005H10.1694V10.7885H5.97947C2.68313 10.7885 0 13.462 0 16.7465C0 20.0309 2.68313 22.7044 5.97947 22.7044H10.2369V21.5248Z" fill="#1F5FFF"/>
<path d="M24.0207 10.7885H19.7632V12.0005H24.0207C26.6462 12.0005 28.7837 14.1303 28.7837 16.7465C28.7837 19.3626 26.6462 21.4924 24.0207 21.4924H22.4663V21.5248H19.7632V22.7019H24.0207C27.317 22.7019 30.0001 20.0285 30.0001 16.744C30.0001 13.4595 27.317 10.7885 24.0207 10.7885Z" fill="#1F5FFF"/>
<path d="M9.4935 26.2383C7.48115 26.2383 5.84424 24.6072 5.84424 22.6021C5.84424 20.597 7.48115 18.966 9.4935 18.966C11.5058 18.966 13.1428 20.597 13.1428 22.6021C13.1428 24.6072 11.5058 26.2383 9.4935 26.2383ZM9.4935 20.178C8.15194 20.178 7.06066 21.2654 7.06066 22.6021C7.06066 23.9389 8.15194 25.0262 9.4935 25.0262C10.8351 25.0262 11.9263 23.9389 11.9263 22.6021C11.9263 21.2654 10.8351 20.178 9.4935 20.178Z" fill="#04CE78"/>
<path d="M11.3363 24.5071C12.3919 23.4553 12.3919 21.7499 11.3363 20.6981C10.2806 19.6462 8.5691 19.6462 7.51346 20.6981C6.45783 21.7499 6.45783 23.4553 7.51346 24.5071C8.5691 25.559 10.2806 25.559 11.3363 24.5071Z" fill="#04CE78"/>
<path d="M9.4935 26.2383C7.48115 26.2383 5.84424 24.6072 5.84424 22.6021C5.84424 20.597 7.48115 18.966 9.4935 18.966C11.5058 18.966 13.1428 20.597 13.1428 22.6021C13.1428 24.6072 11.5058 26.2383 9.4935 26.2383ZM9.4935 20.178C8.15194 20.178 7.06066 21.2654 7.06066 22.6021C7.06066 23.9389 8.15194 25.0262 9.4935 25.0262C10.8351 25.0262 11.9263 23.9389 11.9263 22.6021C11.9263 21.2654 10.8351 20.178 9.4935 20.178Z" fill="#1F5FFF"/>
<path d="M15.1851 11.4269V18.173C15.1851 20.2454 16.6543 21.9288 18.7342 21.9288L23.8176 21.9962" stroke="#1F5FFF" stroke-width="1.3" stroke-miterlimit="10" stroke-linecap="round" stroke-linejoin="round"/>
<path d="M13.8735 1.85776L13.1452 1.81038C10.0416 1.60338 8.27197 5.39663 10.5221 7.53392C10.5822 7.59128 10.6473 7.64864 10.7123 7.70351L14.8997 11.4943" stroke="#1F5FFF" stroke-width="1.3" stroke-miterlimit="10" stroke-linecap="round" stroke-linejoin="round"/>
<path d="M16.6116 1.74553L17.34 1.69814C20.4436 1.49115 22.2132 5.2844 19.9631 7.42169C19.903 7.47905 19.8379 7.53641 19.7728 7.59127L15.5854 11.382" stroke="#1F5FFF" stroke-width="1.3" stroke-miterlimit="10" stroke-linecap="round" stroke-linejoin="round"/>
</g>
</g>
<defs>
<clipPath id="clip0_3_3185">
<rect width="30" height="31" fill="white" transform="translate(0 0.690002)"/>
</clipPath>
<clipPath id="clip1_3_3185">
<rect width="30" height="31" fill="white" transform="translate(0 0.690002)"/>
</clipPath>
</defs>
</svg>
